<svg width="24" height="24" viewBox="0 0 24 24" fill="none" xmlns="http://www.w3.org/2000/svg">
<path d="M3.4033 2.47031C2.85683 2.47031 2.33273 2.68739 1.94631 3.07381C1.55989 3.46023 1.3428 3.98433 1.3428 4.53081V16.8938C1.3428 18.0271 2.25971 18.9543 3.4033 18.9543H11.3856L13.1442 20.6083C13.2554 20.7127 13.4246 20.7185 13.5426 20.6284L14.8123 19.6042C15.2012 19.7516 15.581 19.8307 15.9794 19.8698L16.6656 21.3588C16.73 21.4863 16.8825 21.5636 17.0278 21.5158L19.3619 20.8115C19.5071 20.7638 19.5991 20.6236 19.5772 20.4775L19.3317 18.8577C19.4831 18.732 19.6285 18.6021 19.7663 18.4553C19.9041 18.3084 20.0285 18.1484 20.1526 17.9804L21.7724 18.1373C21.9196 18.1499 22.0559 18.0499 22.0944 17.9019L22.6477 15.5275C22.6862 15.3795 22.6041 15.2272 22.4687 15.1754L20.9435 14.5798C20.8749 14.1891 20.7773 13.8132 20.6014 13.4389L21.5431 12.1048C21.6255 11.9813 21.608 11.8128 21.4968 11.7084L19.8871 10.1993V4.531C19.8871 3.3977 18.9702 2.4705 17.8266 2.4705L3.4033 2.47031ZM3.4033 6.59121H17.8263V10.9737C17.5156 10.8736 17.2054 10.8057 16.8866 10.7705L16.1964 9.28748C16.1361 9.15559 15.9775 9.08275 15.8322 9.13053L13.4981 9.83479C13.3484 9.87838 13.261 10.0227 13.2828 10.1688L13.5424 11.7745C13.3826 11.9091 13.2315 12.0442 13.0937 12.191C12.9559 12.3378 12.8353 12.4927 12.7194 12.6518L11.0875 12.509C10.9404 12.4964 10.8017 12.5922 10.7676 12.7444L10.2122 15.1188C10.1738 15.2668 10.26 15.4146 10.3913 15.4709L11.9206 16.0605C11.9671 16.346 12.0435 16.6212 12.142 16.8935H3.40305L3.4033 6.59121ZM16.3943 13.1871C16.9494 13.1777 17.4864 13.3848 17.8914 13.7646C18.0962 13.9565 18.2612 14.1869 18.3769 14.4426C18.4926 14.6982 18.5567 14.9742 18.5657 15.2547C18.5747 15.5352 18.5283 15.8148 18.4291 16.0773C18.33 16.3399 18.1801 16.5803 17.988 16.7849C17.6002 17.1976 17.0644 17.4394 16.4984 17.4572C15.9324 17.4749 15.3825 17.2671 14.9697 16.8795C14.5567 16.492 14.3145 15.9563 14.2964 15.3903C14.2783 14.8243 14.4857 14.2743 14.8731 13.8612C15.0687 13.6527 15.3041 13.4857 15.5654 13.3699C15.8267 13.2541 16.1085 13.1919 16.3943 13.1871V13.1871Z" fill="#42A5F5"/>
</svg>
