<svg width="24" height="24" viewBox="0 0 24 24" fill="none" xmlns="http://www.w3.org/2000/svg">
<path fill-rule="evenodd" clip-rule="evenodd" d="M4.74892 5H22V16.8957C21.0736 17.8251 20.1442 18.7515 19.2126 19.6753H2V7.74416C2.59669 7.14379 3.19671 6.54638 3.79667 5.94903L3.79669 5.94902L3.7967 5.94901C4.11429 5.6328 4.43186 5.31661 4.74892 5ZM7.2974 8.08788C7.95238 7.65454 8.76233 7.54502 9.53246 7.55195C10.2658 7.56104 11.0355 7.68961 11.6433 8.12727C12.0848 8.43766 12.3719 8.91688 12.5632 9.41255C12.8727 10.2264 12.9636 11.1052 12.974 11.9701C12.9753 12.8411 12.9359 13.7312 12.6476 14.561C12.4545 15.1255 12.087 15.6268 11.6022 15.9749C11.7766 16.2575 11.9527 16.539 12.1289 16.8206L12.129 16.8208C12.3052 17.1024 12.4814 17.384 12.6558 17.6667C12.4846 17.7456 12.3136 17.8247 12.1427 17.9038C11.8757 18.0274 11.6087 18.1509 11.3411 18.2736C11.2041 18.0475 11.0672 17.8211 10.9304 17.5948L10.9302 17.5944L10.9301 17.5943C10.6941 17.2038 10.458 16.8134 10.2208 16.4238C9.71385 16.5069 9.19523 16.5004 8.68571 16.4442C8.07532 16.371 7.45324 16.1849 6.98225 15.774C6.62034 15.4606 6.39307 15.0221 6.23766 14.5762C5.98311 13.8221 5.91471 13.0195 5.90303 12.2281C5.89697 11.3727 5.95151 10.5039 6.20952 9.68312C6.40909 9.0658 6.73939 8.44978 7.2974 8.08788ZM16.1095 8.06019C15.6507 8.05975 15.1918 8.05975 14.7329 8.06019C14.7323 8.36365 14.7324 8.66701 14.7325 8.97036C14.7326 9.27372 14.7327 9.57707 14.732 9.88054C14.5721 9.88119 14.4122 9.88108 14.2524 9.88097C14.0925 9.88086 13.9327 9.88075 13.7727 9.8814C13.7719 10.2753 13.7719 10.6693 13.7727 11.0628C13.9472 11.0635 14.1217 11.0634 14.2962 11.0634C14.4416 11.0633 14.587 11.0633 14.7325 11.0637C14.7327 11.4842 14.7326 11.9047 14.7326 12.3251C14.7325 12.8859 14.7324 13.4465 14.7329 14.0074C14.7424 14.5507 14.7602 15.1139 14.9788 15.6199C15.1009 15.9173 15.3814 16.1169 15.6823 16.2061C16.3632 16.4215 17.0807 16.3002 17.7692 16.1837C17.8029 16.178 17.8366 16.1723 17.8701 16.1667C17.8493 15.8048 17.8281 15.4424 17.8061 15.0805C17.6524 15.0833 17.4988 15.0887 17.3453 15.0941C17.1376 15.1015 16.9299 15.1088 16.7221 15.1095C16.5303 15.1031 16.2948 15.0533 16.2074 14.8593C16.1022 14.6387 16.0939 14.3905 16.0859 14.1491C16.0848 14.1152 16.0836 14.0815 16.0823 14.0481C16.079 13.4228 16.0795 12.7975 16.08 12.1722C16.0803 11.8027 16.0806 11.4332 16.0801 11.0637C16.3732 11.063 16.6662 11.0631 16.9592 11.0632C17.2521 11.0633 17.545 11.0634 17.8381 11.0628C17.8493 10.6688 17.8602 10.2749 17.8701 9.88097C17.6187 9.88078 17.3673 9.88084 17.116 9.88089C16.7808 9.88096 16.4456 9.88103 16.1104 9.88054C16.1097 9.57707 16.1099 9.27372 16.11 8.97036C16.1101 8.66701 16.1102 8.36365 16.1095 8.06019Z" fill="#41CD52"/>
<path d="M8.94851 8.79653C9.39396 8.73853 9.86149 8.75411 10.2831 8.92251C10.6247 9.05757 10.9147 9.32208 11.068 9.65714C11.3031 10.1649 11.3931 10.7255 11.4385 11.2792C11.4879 12.016 11.481 12.7597 11.3792 13.4922C11.3078 13.9281 11.2061 14.3874 10.9108 14.7312C10.6113 15.0762 10.1494 15.2242 9.70608 15.2589C9.23855 15.2931 8.74548 15.2589 8.3234 15.0377C8.07708 14.9065 7.86799 14.7009 7.74591 14.4489C7.59786 14.1472 7.51647 13.8177 7.45933 13.4879C7.28703 12.442 7.24548 11.3597 7.48097 10.3199C7.57794 9.9277 7.71907 9.52511 8.00565 9.22944C8.255 8.97619 8.60219 8.84545 8.94851 8.79653Z" fill="#41CD52"/>
</svg>
